<svg width="42" height="46" viewBox="0 0 42 46" fill="none" xmlns="http://www.w3.org/2000/svg">
<path d="M39.6224 11.2501H39.1647C38.8942 10.3 38.5163 9.38844 38.0359 8.52662L38.3612 8.20126C38.7334 7.82925 38.9382 7.3331 38.9382 6.80414C38.9382 6.27518 38.7334 5.77911 38.3609 5.40667L36.1936 3.2419C35.8214 2.86743 35.3247 2.66127 34.7947 2.66127C34.2649 2.66127 33.768 2.86743 33.3977 3.24005L33.0728 3.56497C32.2103 3.0831 31.2984 2.70448 30.349 2.43405V1.97651C30.3491 0.88668 29.4625 0 28.3726 0H25.3083C24.2185 0 23.3318 0.88668 23.3318 1.97651V2.43405C22.3825 2.70439 21.4701 3.0831 20.6059 3.56532L20.2825 3.2419C19.9101 2.86743 19.4134 2.66127 18.8835 2.66136C18.3537 2.66136 17.8569 2.8676 17.4866 3.24014L15.3197 5.40711C14.9475 5.77911 14.7427 6.27527 14.7427 6.80423C14.7427 7.33318 14.9475 7.82925 15.3196 8.20126L15.6448 8.52653C15.1624 9.39099 14.7843 10.3027 14.5153 11.2501H14.056C12.9661 11.2501 12.0795 12.1367 12.0795 13.2266V16.2934C12.0795 17.3833 12.9661 18.27 14.056 18.27H14.5153C14.7843 19.2172 15.1624 20.1289 15.6448 20.9935L15.3196 21.3188C14.9474 21.6908 14.7426 22.1869 14.7426 22.7159C14.7426 23.2447 14.9474 23.7409 15.3195 24.1129L17.4847 26.2781C17.8569 26.6526 18.3536 26.8587 18.8834 26.8587H18.8835C19.4134 26.8587 19.9102 26.6526 20.2806 26.28L20.6058 25.9547C21.4709 26.4374 22.3833 26.8155 23.3317 27.0845V27.5436C23.3317 28.6334 24.2184 29.5201 25.3082 29.5201H28.3725C29.4623 29.5201 30.349 28.6334 30.349 27.5436V27.0845C31.2977 26.8155 32.2094 26.4374 33.0728 25.955L33.3958 26.2781C33.768 26.6526 34.2648 26.8587 34.7946 26.8587C35.3246 26.8587 35.8214 26.6525 36.1914 26.2803L38.3612 24.1129C38.7333 23.7408 38.9381 23.2447 38.9381 22.7158C38.9381 22.1868 38.7333 21.6908 38.3612 21.3188L38.0358 20.9934C38.5162 20.1316 38.894 19.22 39.1646 18.27H39.6223C40.7121 18.27 41.5988 17.3833 41.5988 16.2934V13.2266C41.5989 12.1367 40.7123 11.2501 39.6224 11.2501ZM28.5856 27.5435C28.5856 27.659 28.4881 27.7565 28.3726 27.7565H25.3083C25.1928 27.7565 25.0953 27.659 25.0953 27.5435V26.3987V20.84C25.0953 20.4712 24.8659 20.1415 24.5202 20.0133C22.1508 19.1345 20.5589 16.8541 20.5589 14.3389C20.5589 12.3455 21.5515 10.4769 23.2136 9.34082C23.2882 9.28986 23.3541 9.24824 23.4118 9.21412C23.4086 9.32874 23.4005 9.43773 23.3962 9.4946C23.3896 9.5841 23.3843 9.65472 23.3843 9.72482V13.8864C23.3843 15.7965 24.8768 17.3917 26.782 17.5181C26.8209 17.5207 26.8598 17.5207 26.8987 17.5181C28.8026 17.3918 30.294 15.7966 30.294 13.8864V9.72482C30.294 9.65508 30.2888 9.58489 30.2822 9.49592C30.278 9.43878 30.2699 9.32918 30.2668 9.21403C30.3243 9.24806 30.3899 9.28959 30.4642 9.34047C32.1268 10.4769 33.1193 12.3454 33.1193 14.3388C33.1193 16.8538 31.5283 19.1342 29.1603 20.0133C28.8148 20.1415 28.5854 20.4712 28.5854 20.8399V26.3987V27.5435H28.5856ZM39.8354 16.2934C39.8354 16.4069 39.7358 16.5065 39.6224 16.5065H38.4802C38.0682 16.5065 37.7111 16.7917 37.6202 17.1935C37.3409 18.4274 36.8573 19.5941 36.1827 20.6612C35.9624 21.0097 36.013 21.4643 36.3045 21.7558L37.1144 22.5657C37.167 22.6183 37.1748 22.6823 37.1748 22.7158C37.1748 22.7492 37.167 22.8133 37.1147 22.8655L34.943 25.0348C34.8934 25.0847 34.8349 25.0952 34.7947 25.0952C34.7546 25.0952 34.6962 25.0847 34.6447 25.0328L33.8349 24.223C33.5429 23.9311 33.0879 23.8808 32.7394 24.1016C31.9867 24.5786 31.1856 24.957 30.3491 25.2367V21.4264C33.0846 20.1534 34.883 17.3791 34.883 14.3387C34.883 11.7625 33.6031 9.34973 31.4596 7.88454C31.1313 7.66013 30.1327 6.9774 29.2593 7.48008C28.4017 7.97386 28.4872 9.13132 28.5236 9.62563C28.5268 9.66857 28.5299 9.70463 28.5306 9.72482V13.8864C28.5306 14.8515 27.7929 15.6607 26.8404 15.7537C25.8867 15.6606 25.1479 14.8514 25.1479 13.8864L25.1478 9.73117C25.1486 9.70463 25.1517 9.66857 25.1549 9.62545C25.1917 9.13141 25.2778 7.97456 24.4209 7.48052C23.5479 6.97696 22.5479 7.65996 22.2189 7.88454C20.0752 9.34982 18.7954 11.7626 18.7954 14.3388C18.7954 17.3797 20.5948 20.1541 23.3318 21.4268V25.2368C22.4951 24.9571 21.693 24.5785 20.9382 24.1013C20.793 24.0096 20.6297 23.9649 20.4672 23.9649C20.2395 23.9649 20.0136 24.053 19.8435 24.2231L19.0319 25.0348C18.9823 25.0848 18.9238 25.0953 18.8836 25.0953C18.8434 25.0953 18.7851 25.0848 18.7336 25.033L16.5667 22.866C16.514 22.8134 16.5062 22.7493 16.5062 22.7159C16.5062 22.6824 16.514 22.6184 16.5667 22.5657L17.3764 21.7558C17.6679 21.4643 17.7186 21.0097 17.4983 20.6612C16.8202 19.5884 16.3367 18.4222 16.0612 17.195C15.9709 16.7925 15.6134 16.5064 15.2008 16.5064H14.0562C13.9427 16.5064 13.8431 16.4068 13.8431 16.2934V13.2265C13.8431 13.111 13.9406 13.0135 14.0562 13.0135H15.2008C15.6134 13.0135 15.9708 12.7273 16.0612 12.3248C16.3367 11.0976 16.8202 9.93133 17.4983 8.8586C17.7186 8.51013 17.6679 8.05551 17.3764 7.764L16.5666 6.95412C16.514 6.90157 16.5062 6.83756 16.5062 6.80405C16.5062 6.77055 16.514 6.70653 16.5667 6.65389L18.7355 4.48498C18.7851 4.43507 18.8435 4.42458 18.8837 4.42458C18.9239 4.42458 18.9823 4.43507 19.0338 4.48683L19.8436 5.29671C20.1352 5.5883 20.5899 5.63883 20.9382 5.41857C22.0096 4.74122 23.1772 4.2567 24.408 3.97868C24.8101 3.88787 25.0955 3.53067 25.0955 3.11863V1.97651C25.0955 1.861 25.193 1.76348 25.3085 1.76348H28.3727C28.4882 1.76348 28.5858 1.861 28.5858 1.97651V3.11881C28.5858 3.53094 28.8712 3.88804 29.2732 3.97886C30.5051 4.25714 31.6713 4.74139 32.7396 5.41831C33.0881 5.63909 33.5431 5.58883 33.835 5.29698L34.6467 4.48525C34.6963 4.43534 34.7548 4.42485 34.7949 4.42485C34.8351 4.42485 34.8935 4.43534 34.9453 4.48745L37.1146 6.65416C37.1671 6.70671 37.175 6.77072 37.175 6.80423C37.175 6.83773 37.1671 6.90175 37.1145 6.95439L36.3047 7.76427C36.0132 8.05577 35.9626 8.5104 36.1829 8.85886C36.8574 9.92603 37.3411 11.0927 37.6204 12.3266C37.7113 12.7284 38.0684 13.0136 38.4803 13.0136H39.6225C39.738 13.0136 39.8356 13.1112 39.8356 13.2267V16.2934H39.8354Z" fill="#DD3142"/>
<path d="M31.9781 38.8249C31.6338 39.1692 31.6338 39.7276 31.9781 40.072C32.1503 40.2441 32.3759 40.3303 32.6016 40.3303C32.8272 40.3303 33.0529 40.2441 33.2251 40.072L33.2276 40.0695C33.5719 39.7252 33.5706 39.1681 33.2262 38.8238C32.8818 38.4794 32.3224 38.4808 31.9781 38.8249Z" fill="#DD3142"/>
<path d="M36.0629 30.2834L29.0627 33.8784C28.4692 33.2638 27.6378 32.8804 26.718 32.8804H21.9217C21.6531 32.8804 21.5875 32.8591 21.5831 32.8576C21.5442 32.8371 21.4213 32.7216 21.3226 32.6289L21.2789 32.5878C17.3985 28.935 14.1207 29.1664 10.3931 30.6375C9.78998 30.8756 9.77834 30.8761 9.17267 30.902L8.08813 30.9028C7.77917 29.9707 6.8999 29.2961 5.86552 29.2961H2.33891C1.04918 29.2961 0 30.3466 0 31.6376V40.8932C0 42.1828 1.04918 43.2321 2.33891 43.2321H5.86552C6.89981 43.2321 7.77899 42.5583 8.08804 41.6274H10.072C10.2472 41.6274 10.2472 41.6274 10.4509 41.6848C10.525 41.7057 10.6151 41.7311 10.7315 41.7624L19.857 44.2038C20.2593 44.3124 20.6282 44.4193 20.985 44.5227C22.1542 44.8614 23.137 45.1463 24.1613 45.1463C25.319 45.1463 26.5296 44.7824 28.1217 43.7214C28.1294 43.7162 28.1371 43.711 28.1447 43.7056L29.8868 42.4633C30.2833 42.1805 30.3756 41.63 30.0928 41.2334C29.81 40.8368 29.2593 40.7447 28.863 41.0275L27.1324 42.2615C24.8219 43.7982 23.8408 43.5141 21.4758 42.8289C21.1115 42.7233 20.7348 42.6142 20.315 42.5008L11.1888 40.0593C11.0819 40.0306 10.9981 40.0069 10.9293 39.9875C10.5963 39.8937 10.4718 39.8641 10.0721 39.8641H8.20699V32.667H9.15989C9.17259 32.667 9.18511 32.6667 9.1978 32.6662L9.24806 32.664C9.98723 32.6325 10.194 32.6123 11.0406 32.278C14.3145 30.9861 16.8415 30.8326 20.0714 33.8731L20.115 33.9141C20.667 34.4328 20.9848 34.6441 21.9218 34.6441H26.7181C27.281 34.6441 27.7719 34.9566 28.0278 35.4169C28.0305 35.422 28.0337 35.4269 28.0365 35.432C28.1508 35.6434 28.2158 35.8851 28.2158 36.1419C28.2158 36.9664 27.544 37.6372 26.7182 37.6372H18.945C18.4581 37.6372 18.0633 38.0319 18.0633 38.5189C18.0633 39.0059 18.4581 39.4006 18.945 39.4006H26.7182C28.5164 39.4006 29.9793 37.9388 29.9793 36.1419C29.9793 35.8977 29.9515 35.6599 29.9003 35.431L36.8685 31.8524C37.5281 31.5138 38.4299 31.5501 38.8777 32.2767C39.2738 32.9171 39.0559 33.7683 38.3712 34.2565L35.3145 36.4335C34.9178 36.716 34.8252 37.2666 35.1077 37.6633C35.2797 37.9048 35.5511 38.0336 35.8267 38.0336C36.0036 38.0336 36.1823 37.9804 36.3374 37.87L39.3945 35.6927C40.8463 34.6577 41.2689 32.7903 40.3781 31.3503C39.5022 29.9288 37.6472 29.4701 36.0629 30.2834ZM6.44342 40.8932C6.44342 41.2051 6.17881 41.4686 5.86552 41.4686H2.33891C2.02695 41.4686 1.76348 41.205 1.76348 40.8932V31.6377C1.76348 31.319 2.02166 31.0597 2.33891 31.0597H5.86552C6.17881 31.0597 6.44342 31.3243 6.44342 31.6377V40.8932Z" fill="#DD3142"/>
</svg>
